<?xml version="1.0" encoding="UTF-8" standalone="no"?>
<svg
   width="1014"
   height="258"
   viewBox="0 0 1014 258"
   version="1.1"
   id="svg8"
   sodipodi:docname="wenzap_full_logo_traced.svg"
   xmlns:inkscape="http://www.inkscape.org/namespaces/inkscape"
   xmlns:sodipodi="http://sodipodi.sourceforge.net/DTD/sodipodi-0.dtd"
   xmlns="http://www.w3.org/2000/svg"
   xmlns:svg="http://www.w3.org/2000/svg">
  <defs
     id="defs8" />
  <sodipodi:namedview
     id="namedview8"
     pagecolor="#ffffff"
     bordercolor="#000000"
     borderopacity="0.25"
     inkscape:showpageshadow="2"
     inkscape:pageopacity="0.0"
     inkscape:pagecheckerboard="0"
     inkscape:deskcolor="#d1d1d1">
    <inkscape:page
       x="0"
       y="0"
       width="1014"
       height="258"
       id="page2"
       margin="0"
       bleed="0" />
  </sodipodi:namedview>
  <path
     d="m 62,76 -2,4 v 6 l 27,73 9,6 h 11 l 8,-5 12,-31 6,-11 3,1 16,41 8,5 h 12 l 4,-2 7,-10 24,-67 -1,-8 -5,-5 -10,-1 -4,2 -4,6 -15,46 -2,3 h -2 l -18,-47 -8,-6 -11,1 -7,7 -15,43 -4,1 -17,-48 -3,-5 -5,-3 h -8 z"
     fill="#20e7b2"
     fill-rule="evenodd"
     id="path1"
     inkscape:export-filename="../www/wenzap/pubic/images/wenzap_logo.svg"
     inkscape:export-xdpi="96"
     inkscape:export-ydpi="96" />
  <path
     d="M 18,32 6,53 1,71 l -1,82 4,20 9,18 15,17 15,10 -5,26 1,7 4,5 4,2 h 9 l 60,-31 h 81 l 13,-3 24,-12 18,-18 8,-14 6,-19 1,-85 L 264,60 257,43 248,30 232,15 216,6 193,0 H 75 L 57,4 40,12 28,21 Z m 19,13 9,-9 9,-6 12,-5 10,-2 h 114 l 16,4 11,6 12,11 7,10 7,23 v 76 l -4,15 -8,14 -14,13 -17,8 -12,2 h -79 l -45,22 -1,-5 2,-7 V 204 L 46,193 36,183 27,168 24,158 23,81 27,62 Z"
     fill="#20e7b2"
     fill-rule="evenodd"
     id="path2" />
  <path
     d="m 722,94 -2,2 1,17 42,1 1,3 -46,55 v 16 l 2,2 h 76 l 2,-2 v -16 l -2,-2 h -44 l -1,-3 45,-54 1,-17 -2,-2 z"
     fill="#f5f5f7"
     fill-rule="evenodd"
     id="path3" />
  <path
     d="m 992,96 -11,-4 h -17 l -11,4 -9,8 h -2 l -1,-7 -5,-4 h -10 l -8,2 -1,128 2,3 19,1 3,-2 1,-45 h 2 l 5,5 11,6 21,1 14,-6 11,-11 5,-10 3,-12 -1,-27 -7,-17 -7,-8 z m -31,16 h 8 l 8,3 9,10 3,10 v 14 l -3,10 -8,9 -11,4 -9,-1 -6,-3 -8,-9 -3,-11 v -12 l 5,-14 6,-6 z"
     fill="#f5f5f7"
     fill-rule="evenodd"
     id="path4" />
  <path
     d="m 826,101 -5,5 -4,8 v 4 l 3,3 18,1 2,-4 7,-6 16,-1 5,2 4,4 2,4 v 9 l -2,2 -33,2 -16,6 -7,7 -4,10 v 12 l 6,13 11,8 14,3 15,-2 8,-4 7,-7 3,1 v 7 l 2,2 h 19 l 1,-70 -3,-10 -4,-6 -7,-6 -16,-6 -26,1 z m 48,47 v 12 l -3,6 -7,6 -6,2 h -12 l -9,-7 -1,-7 5,-8 12,-4 z"
     fill="#f5f5f7"
     fill-rule="evenodd"
     id="path5" />
  <path
     d="m 688,98 -14,-6 h -17 l -12,5 -8,8 h -2 l -1,-9 -4,-3 h -15 l -4,2 -1,92 2,3 h 20 l 2,-2 1,-57 4,-10 6,-6 8,-3 h 7 l 6,2 9,11 1,63 2,2 h 20 l 2,-2 v -69 l -5,-13 z"
     fill="#f5f5f7"
     fill-rule="evenodd"
     id="path6" />
  <path
     d="m 529,94 -13,7 -7,7 -7,13 -3,12 v 19 l 4,14 6,10 6,6 17,9 20,2 20,-5 9,-6 7,-8 2,-4 v -3 l -2,-2 -10,-3 h -9 l -9,9 -6,2 h -12 l -9,-4 -5,-5 -4,-8 v -7 l 68,-1 1,-16 -5,-17 -10,-13 -14,-8 -7,-2 h -20 z m -5,34 7,-12 6,-4 11,-2 8,2 5,3 6,7 2,9 -8,2 h -36 z"
     fill="#f5f5f7"
     fill-rule="evenodd"
     id="path7" />
  <path
     d="m 323,60 v 7 l 30,114 2,7 2,2 h 27 l 2,-2 21,-84 2,-2 3,1 21,85 2,2 h 26 l 3,-2 33,-123 v -3 l -3,-4 h -19 l -4,4 -21,90 -4,-1 -21,-87 -4,-6 h -22 l -3,2 -23,92 h -2 l -2,-3 -21,-89 -3,-2 h -19 z"
     fill="#f5f5f7"
     fill-rule="evenodd"
     id="path8" />
</svg>
